<svg width="44" height="44" viewBox="0 0 44 44" fill="none" xmlns="http://www.w3.org/2000/svg">
<g clip-path="url(#clip0_17869_40)">
<path d="M22 44C34.1503 44 44 34.1503 44 22C44 9.84974 34.1503 0 22 0C9.84974 0 0 9.84974 0 22C0 34.1503 9.84974 44 22 44Z" fill="#13E07E"/>
<path d="M31.9319 14.969C28.6336 12.9047 27.2652 10.1742 24.945 7.62488C22.1911 4.59871 18.9974 6.72794 18.9974 6.72794C15.992 8.71204 15.1961 11.4678 14.9914 12.6C14.9698 12.7199 15.1267 12.783 15.1916 12.6811C16.1137 11.2415 19.2137 6.828 21.5394 8.55248C22.0478 8.92929 22.3335 9.54949 22.3507 10.1886C22.3786 11.2496 21.8711 12.9993 18.5566 13.8927C12.9227 15.4116 5.99976 17.9375 5.99976 22.7567C5.99976 26.3976 9.88759 27.8932 11.649 28.3844C11.7743 28.4196 11.8446 28.2429 11.7319 28.1789C9.94348 27.1576 5.86094 24.3558 8.7536 21.4117C12.3881 17.713 20.2296 18.2783 22.8528 21.7479C25.0558 24.6623 24.7944 31.9903 22.192 33.9662C18.7621 36.5696 14.8121 28.6792 14.0432 23.1722C14.0242 23.0388 13.8322 23.0469 13.8241 23.1813C13.6375 26.2309 13.5591 34.435 18.8874 37.2169C25.786 40.8191 28.5804 31.1798 29.3511 25.1104C29.3511 25.1104 29.8424 20.4589 33.2065 21.1872C36.2758 21.8516 36.0829 24.8084 30.3968 28.2312C30.2877 28.297 30.3544 28.4665 30.477 28.4367C32.2753 28.0004 37.2818 26.2318 37.966 23.0542C37.966 23.0542 38.8242 19.2816 31.9319 14.9681V14.969Z" fill="black"/>
<path d="M30.1593 16.5148V16.513C30.1476 16.4796 30.1368 16.4472 30.126 16.4138C30.1097 16.3661 30.0926 16.3183 30.0746 16.2714C30.0502 16.2083 30.025 16.1461 29.9989 16.0839C29.9908 16.065 29.9826 16.047 29.9736 16.028L29.9457 15.9658C29.9358 15.9442 29.9259 15.9226 29.9159 15.9009C29.9015 15.8712 29.8871 15.8414 29.8718 15.8126L29.8267 15.7225C29.806 15.6837 29.7852 15.6449 29.7636 15.6071L29.7303 15.5476C29.7113 15.5133 29.6906 15.48 29.6699 15.4466L29.6257 15.3745C29.6023 15.3376 29.5788 15.3015 29.5545 15.2654L29.5139 15.2051C29.4941 15.1753 29.4734 15.1465 29.4526 15.1176L29.3949 15.0374C29.3769 15.0121 29.358 14.9878 29.3391 14.9635L29.3291 14.9509C29.3093 14.9247 29.2895 14.8995 29.2696 14.8742C29.2498 14.849 29.2291 14.8247 29.2084 14.7994C29.1849 14.7715 29.1615 14.7426 29.138 14.7147L29.0831 14.6516C29.056 14.6209 29.029 14.5912 29.0019 14.5614L28.9515 14.5083C28.9217 14.4767 28.8911 14.4452 28.8604 14.4145L28.8 14.355C28.7721 14.328 28.7441 14.3009 28.7153 14.2739L28.654 14.218C28.6252 14.1919 28.5963 14.1648 28.5657 14.1396L28.4845 14.0711C28.4602 14.0512 28.4368 14.0305 28.4124 14.0107C28.3926 13.9954 28.3737 13.98 28.3538 13.9647L28.2547 13.8872C28.1474 13.8061 28.0348 13.7276 27.9221 13.6546L27.7535 13.5501C27.7283 13.5356 27.704 13.5212 27.6787 13.5068L27.5823 13.4518C27.5444 13.4311 27.5056 13.4112 27.4678 13.3914L27.4083 13.3608C27.3695 13.3409 27.3299 13.322 27.2902 13.304L27.2307 13.276C27.192 13.258 27.1541 13.2418 27.1154 13.2256L27.0505 13.1976C27.0144 13.1832 26.9774 13.1688 26.9414 13.1543C26.9161 13.1444 26.8918 13.1354 26.8666 13.1255C26.8404 13.1156 26.8134 13.1066 26.7872 13.0976L26.7674 13.0912C26.7386 13.0813 26.7097 13.0714 26.6809 13.0615C26.6574 13.0543 26.6349 13.0471 26.6115 13.0399L26.5853 13.0318C26.5547 13.0227 26.5249 13.0128 26.4934 13.0047L26.4177 12.9849C26.3807 12.975 26.3438 12.9659 26.3077 12.9569L26.2266 12.9389C26.1914 12.9308 26.1563 12.9236 26.1211 12.9173L26.058 12.9056C26.0175 12.8983 25.976 12.8911 25.9354 12.8848L25.8552 12.874C25.821 12.8695 25.7858 12.865 25.7516 12.8605L25.6596 12.8524C25.629 12.8497 25.5992 12.847 25.5686 12.8452C25.5451 12.8434 25.5226 12.8425 25.5001 12.8416L25.4442 12.8388C25.4244 12.8379 25.4045 12.837 25.3847 12.8361C25.2612 12.8325 25.1377 12.8361 25.016 12.8443C24.9971 12.8452 24.9773 12.847 24.9583 12.8488L24.907 12.8533C24.8835 12.8551 24.8601 12.8569 24.8367 12.8596C24.806 12.8632 24.7772 12.8668 24.7474 12.8713L24.6609 12.8839C24.623 12.8902 24.587 12.8974 24.5473 12.9047L24.4878 12.9164C24.4491 12.9245 24.4112 12.9335 24.3625 12.9461L24.3157 12.9578C24.2796 12.9678 24.2436 12.9786 24.2075 12.9894L24.1895 12.9948C24.175 12.9993 24.1606 13.0029 24.1462 13.0083C24.1147 13.0182 24.084 13.029 24.0525 13.0399L23.9785 13.0669C23.9488 13.0777 23.92 13.0903 23.8911 13.1021C23.865 13.1129 23.8397 13.1228 23.8145 13.1345C23.7893 13.1453 23.7649 13.1579 23.7397 13.1697C23.7108 13.1832 23.6829 13.1967 23.655 13.2111C23.6378 13.2201 23.6207 13.2292 23.6045 13.2382L23.5928 13.2445C23.5621 13.2607 23.5315 13.2778 23.5017 13.295L23.4485 13.3274C23.417 13.3463 23.3854 13.3662 23.3539 13.3869L23.307 13.4194C23.2755 13.441 23.2439 13.4635 23.2133 13.4861C23.2016 13.4951 23.1898 13.5041 23.1781 13.5131L23.1673 13.5212C23.1376 13.5447 23.1078 13.5681 23.079 13.5924C23.0682 13.6014 23.0573 13.6114 23.0474 13.6204L23.015 13.6492C22.9933 13.6681 22.9717 13.6871 22.951 13.7069C22.9356 13.7213 22.9203 13.7367 22.9059 13.7511L22.868 13.7898C22.8545 13.8034 22.841 13.8169 22.8284 13.8304C22.7482 13.916 22.6715 14.008 22.6012 14.1026C22.5904 14.118 22.5796 14.1333 22.5688 14.1486L22.5408 14.1883C22.5273 14.2081 22.5129 14.227 22.5003 14.2469C22.485 14.2712 22.4696 14.2955 22.4552 14.3199L22.4083 14.3983C22.3885 14.4325 22.3705 14.4668 22.3525 14.502L22.3236 14.5569C22.3056 14.593 22.2894 14.6291 22.2731 14.666L22.2479 14.7228C22.2326 14.7589 22.2182 14.7958 22.2046 14.8328L22.1812 14.895C22.1686 14.9301 22.1578 14.9653 22.146 15.0004L22.1406 15.0167C22.1343 15.0356 22.128 15.0554 22.1226 15.0743C22.1145 15.1014 22.1082 15.1275 22.101 15.1546L22.0929 15.1852C22.0866 15.2105 22.0802 15.2348 22.0748 15.26C22.0676 15.2898 22.0622 15.3186 22.0559 15.3484L22.0523 15.3664C22.0469 15.3943 22.0415 15.4223 22.0361 15.4511C22.0325 15.4728 22.0289 15.4944 22.0262 15.5169L22.0244 15.5305C22.0189 15.5692 22.0135 15.608 22.009 15.6467C22.0063 15.6657 22.0054 15.6846 22.0036 15.7035V15.718C21.9982 15.7603 21.9946 15.8027 21.9919 15.8451L21.9892 15.9118C21.9874 15.9559 21.9856 16.0001 21.9856 16.0452V16.1146C21.9874 16.1587 21.9883 16.2029 21.9901 16.2471C21.991 16.266 21.9928 16.2858 21.9937 16.3057L21.9973 16.358C21.9991 16.3895 22.0018 16.4211 22.0045 16.4517C22.0072 16.4769 22.0099 16.5013 22.0135 16.5265L22.0217 16.5923C22.0244 16.6149 22.0271 16.6374 22.0307 16.6599C22.0415 16.7302 22.0532 16.8014 22.0676 16.8718C22.0784 16.9258 22.0911 16.979 22.1037 17.0322C22.1127 17.0701 22.1226 17.107 22.1343 17.1521C22.4417 18.2942 23.1808 19.3308 24.2156 20.07C25.1071 20.7082 26.1058 21.0444 27.0595 21.0444C27.3596 21.0444 27.6544 21.011 27.9401 20.9434C28.8487 20.728 29.5779 20.1763 29.9926 19.3885C30.427 18.5637 30.4865 17.546 30.1593 16.5184V16.5148ZM27.8896 15.9054C27.859 15.8577 27.8545 15.8081 27.877 15.7765C27.8959 15.7513 27.9311 15.7414 27.9735 15.7522C28.2646 15.8207 28.5594 15.91 28.8496 16.0163C29.2543 16.1642 29.5914 16.55 29.669 16.9547C29.8141 17.7083 29.7104 18.4177 29.3688 19.0063C29.0128 19.6184 28.4142 20.0465 27.6823 20.2115C26.7115 20.4305 25.6055 20.1781 24.6456 19.521C23.8929 19.0054 23.2971 18.2789 22.9681 17.4757C22.7905 17.0439 22.9167 16.595 23.2737 16.3832C23.527 16.2336 23.7929 16.102 24.0642 15.9929C24.0795 15.9866 24.0957 15.9839 24.112 15.9839C24.1453 15.9839 24.1805 15.9956 24.212 16.0181C24.2616 16.0533 24.2913 16.1074 24.2895 16.1596C24.2805 16.3769 24.3121 16.6022 24.3842 16.8294C24.6942 17.8146 25.6957 18.5682 26.68 18.5682C26.698 18.5682 26.716 18.5682 26.7332 18.5682C27.2605 18.5529 27.7003 18.332 27.9708 17.9444C28.261 17.5289 28.3196 16.9709 28.1321 16.4138C28.0735 16.239 27.9915 16.0677 27.8896 15.9063V15.9054Z" fill="black"/>
<path d="M28.8497 16.0165C28.5594 15.9101 28.2647 15.8218 27.9735 15.7524C27.9312 15.7424 27.896 15.7515 27.8771 15.7767C27.8546 15.8082 27.8591 15.8569 27.8897 15.9056C27.9916 16.067 28.0727 16.2373 28.1322 16.4131C28.3197 16.9702 28.2611 17.5281 27.9708 17.9437C27.7004 18.3313 27.2615 18.5521 26.7332 18.5675C26.7152 18.5675 26.6972 18.5675 26.6801 18.5675C25.6958 18.5675 24.6943 17.8139 24.3842 16.8286C24.313 16.6024 24.2815 16.377 24.2896 16.1589C24.2914 16.1066 24.2626 16.0525 24.2121 16.0174C24.1805 15.9948 24.1454 15.9831 24.112 15.9831C24.0958 15.9831 24.0787 15.9858 24.0643 15.9921C23.7929 16.1012 23.527 16.2328 23.2737 16.3824C22.9168 16.5943 22.7915 17.0432 22.9682 17.475C23.2972 18.2781 23.893 19.0046 24.6456 19.5203C25.6056 20.1783 26.7116 20.4307 27.6824 20.2107C28.4143 20.0458 29.0137 19.6176 29.3689 19.0055C29.7105 18.4169 29.8151 17.7066 29.669 16.9539C29.5906 16.5492 29.2535 16.1634 28.8497 16.0156V16.0165Z" fill="#13E07E"/>
</g>
<defs>
<clipPath id="clip0_17869_40">
<rect width="44" height="44" fill="white"/>
</clipPath>
</defs>
</svg>
