<svg width="20" height="20" viewBox="0 0 20 20" fill="none" xmlns="http://www.w3.org/2000/svg">
<path d="M8.61883 3.28335C8.69417 2.83129 9.08528 2.49997 9.54357 2.49997H10.4552C10.9135 2.49997 11.3046 2.83129 11.38 3.28335L11.5041 4.02819C11.563 4.38175 11.8238 4.66529 12.1548 4.80273C12.486 4.94024 12.8663 4.92187 13.1581 4.71345L13.7727 4.27442C14.1457 4.00804 14.6565 4.05032 14.9806 4.37438L15.6252 5.019C15.9492 5.34306 15.9915 5.8539 15.7252 6.22683L15.286 6.84169C15.0776 7.1334 15.0592 7.51358 15.1967 7.84466C15.3341 8.17562 15.6176 8.43633 15.971 8.49524L16.716 8.61941C17.1681 8.69475 17.4994 9.08586 17.4994 9.54415V10.4558C17.4994 10.9141 17.1681 11.3052 16.716 11.3805L15.9712 11.5047C15.6176 11.5636 15.3341 11.8244 15.1966 12.1554C15.0591 12.4866 15.0775 12.8668 15.2859 13.1586L15.7249 13.7732C15.9912 14.1461 15.949 14.6569 15.6249 14.981L14.9803 15.6256C14.6562 15.9497 14.1454 15.992 13.7725 15.7256L13.1578 15.2865C12.8661 15.0781 12.4858 15.0598 12.1547 15.1972C11.8238 15.3347 11.563 15.6182 11.5041 15.9716L11.38 16.7166C11.3046 17.1686 10.9135 17.5 10.4552 17.5H9.54357C9.08528 17.5 8.69417 17.1686 8.61883 16.7166L8.49468 15.9717C8.43576 15.6182 8.17499 15.3347 7.84396 15.1972C7.51279 15.0597 7.13251 15.0781 6.84072 15.2865L6.22604 15.7256C5.85312 15.9919 5.34227 15.9497 5.01822 15.6256L4.37359 14.981C4.04953 14.6569 4.00725 14.1461 4.27363 13.7731L4.71282 13.1583C4.92119 12.8666 4.93956 12.4864 4.8021 12.1553C4.6647 11.8243 4.38122 11.5636 4.02774 11.5047L3.28277 11.3805C2.83071 11.3052 2.49939 10.9141 2.49939 10.4558V9.54415C2.49939 9.08586 2.83071 8.69475 3.28277 8.61941L4.0276 8.49527C4.38117 8.43634 4.66471 8.17556 4.80216 7.84453C4.93966 7.51334 4.9213 7.13305 4.71287 6.84125L4.27396 6.22677C4.00758 5.85385 4.04986 5.34301 4.37392 5.01895L5.01854 4.37432C5.3426 4.05027 5.85344 4.00799 6.22637 4.27436L6.84103 4.71341C7.13276 4.92178 7.51295 4.94015 7.84406 4.80269C8.17503 4.66528 8.43575 4.38179 8.49467 4.0283L8.61883 3.28335Z" stroke="#F6F6F5" stroke-width="1.5" stroke-linecap="round" stroke-linejoin="round"/>
<path d="M12.5 9.99999C12.5 11.3807 11.3807 12.5 9.99997 12.5C8.61926 12.5 7.49997 11.3807 7.49997 9.99999C7.49997 8.61928 8.61926 7.49999 9.99997 7.49999C11.3807 7.49999 12.5 8.61928 12.5 9.99999Z" stroke="#F6F6F5" stroke-width="1.5" stroke-linecap="round" stroke-linejoin="round"/>
</svg>
