<svg width="71" height="70" viewBox="0 0 71 70" fill="none" xmlns="http://www.w3.org/2000/svg">
<path d="M35.5 48.125L35.5 28.4375M35.5 28.4375L44.25 37.1875M35.5 28.4375L26.75 37.1875M20.1875 56.875C12.9388 56.875 7.0625 50.9987 7.0625 43.75C7.0625 37.9372 10.8412 33.007 16.0762 31.2818C15.903 30.3602 15.8125 29.4094 15.8125 28.4375C15.8125 19.9806 22.6681 13.125 31.125 13.125C38.2161 13.125 44.1814 17.9451 45.9232 24.4876C46.7741 24.2116 47.6821 24.0625 48.625 24.0625C53.4575 24.0625 57.375 27.98 57.375 32.8125C57.375 33.8279 57.202 34.8029 56.884 35.7097C61.0072 37.2763 63.9375 41.2647 63.9375 45.9375C63.9375 51.9781 59.0406 56.875 53 56.875H20.1875Z" stroke="#13E07E" stroke-width="1.5" stroke-linecap="round" stroke-linejoin="round"/>
</svg>
